<?xml version="1.0" standalone="no"?>
<!DOCTYPE svg PUBLIC "-//W3C//DTD SVG 20010904//EN"
 "http://www.w3.org/TR/2001/REC-SVG-20010904/DTD/svg10.dtd">
<svg version="1.0" xmlns="http://www.w3.org/2000/svg"
 width="285.000000pt" height="283.000000pt" viewBox="0 0 285.000000 283.000000"
 preserveAspectRatio="xMidYMid meet">

<g transform="translate(0.000000,283.000000) scale(0.100000,-0.100000)"
fill="#000000" stroke="none">
<path d="M2 1418 l-2 -1418 1425 0 1425 0 -2 1418 c-2 1050 -4 1250 -8 772 -3
-396 -8 -622 -13 -585 -13 98 -63 278 -103 371 -157 365 -474 657 -850 779
-722 237 -1488 -121 -1767 -826 -29 -72 -71 -232 -84 -319 -5 -34 -10 189 -13
585 -4 472 -6 267 -8 -777z m836 806 c42 -14 111 -45 153 -70 42 -24 84 -44
95 -44 10 0 51 7 89 15 156 33 399 29 551 -9 l51 -13 90 51 c101 58 173 85
249 93 l51 5 18 -43 c23 -57 32 -219 16 -287 -12 -49 -12 -50 23 -99 83 -116
113 -232 102 -398 -12 -195 -64 -330 -168 -435 -92 -92 -245 -160 -420 -185
l-47 -7 25 -34 c54 -70 64 -132 64 -396 0 -139 4 -247 10 -258 13 -25 62 -34
107 -19 68 21 237 107 313 158 149 99 290 241 393 396 110 166 176 333 217
552 l18 98 1 -642 1 -643 -1415 0 -1415 0 1 643 1 642 18 -95 c61 -331 184
-565 412 -789 133 -130 334 -256 497 -312 69 -24 86 -24 111 1 18 18 20 33 20
163 l0 142 -137 0 c-123 0 -144 3 -188 23 -69 32 -111 75 -151 157 -45 93 -95
159 -149 197 -74 52 -70 88 8 88 79 0 150 -50 229 -162 41 -58 89 -98 143
-118 40 -15 150 -14 204 2 42 13 45 16 63 73 11 33 31 75 45 93 14 18 23 35
22 37 -2 2 -44 11 -94 20 -164 30 -304 101 -386 193 -54 62 -114 189 -133 284
-19 90 -21 254 -5 330 13 63 59 159 99 210 l29 36 -15 74 c-10 48 -13 94 -9
135 6 57 27 142 40 163 11 17 74 11 153 -16z"/>
</g>
</svg>
